<svg width="50" height="50" viewBox="0 0 50 50" fill="none" xmlns="http://www.w3.org/2000/svg">
<path d="M32.5333 30.2829C33.1556 30.9054 33.1556 31.9112 32.5333 32.5337C32.223 32.8441 31.8156 33 31.4079 33C31.0004 33 30.593 32.8441 30.2826 32.5337L25.5 27.7507L20.7174 32.5337C20.407 32.8441 19.9996 33 19.5921 33C19.1844 33 18.777 32.8441 18.4667 32.5337C17.8444 31.9112 17.8444 30.9054 18.4667 30.2829L23.2496 25.5002L18.4667 20.7174C17.8444 20.0949 17.8444 19.0892 18.4667 18.4667C19.0891 17.8444 20.0949 17.8444 20.7174 18.4667L25.5 23.2497L30.2826 18.4667C30.9051 17.8444 31.9109 17.8444 32.5333 18.4667C33.1556 19.0892 33.1556 20.0949 32.5333 20.7174L27.7504 25.5002L32.5333 30.2829Z" fill="#FF9309"/>
<circle cx="25" cy="25" r="24.5" stroke="#FF9309"/>
</svg>
