<svg width="30" height="30" viewBox="0 0 30 30" fill="none" xmlns="http://www.w3.org/2000/svg">
<circle cx="15" cy="15" r="15" fill="#F44336"/>
<path d="M13.3359 18.0884L13.3359 15.4414" stroke="white" stroke-width="1.2" stroke-linecap="round"/>
<path d="M16.6641 18.0884L16.6641 15.4414" stroke="white" stroke-width="1.2" stroke-linecap="round"/>
<path d="M7.5 11.0293H22.5C22.0353 11.0293 21.803 11.0293 21.6098 11.0677C20.8164 11.2255 20.1962 11.8457 20.0384 12.6391C20 12.8323 20 13.0646 20 13.5293V18.4997C20 20.3853 20 21.3281 19.4142 21.9139C18.8284 22.4997 17.8856 22.4997 16 22.4997H14C12.1144 22.4997 11.1716 22.4997 10.5858 21.9139C10 21.3281 10 20.3853 10 18.4997V13.5293C10 13.0646 10 12.8323 9.96157 12.6391C9.80376 11.8457 9.18356 11.2255 8.39018 11.0677C8.19698 11.0293 7.96466 11.0293 7.5 11.0293Z" fill="white" stroke="white" stroke-width="1.2" stroke-linecap="round"/>
<path d="M13.3875 7.82699C13.4825 7.73318 13.6917 7.65029 13.9828 7.59117C14.2739 7.53205 14.6305 7.5 14.9974 7.5C15.3643 7.5 15.7209 7.53205 16.012 7.59117C16.3031 7.65029 16.5123 7.73318 16.6073 7.82699" stroke="white" stroke-width="1.2" stroke-linecap="round"/>
</svg>
