<svg width="50" height="50" viewBox="0 0 50 50" fill="none" xmlns="http://www.w3.org/2000/svg">
<circle cx="25" cy="25" r="24.5" stroke="#FF9309"/>
<path d="M18.8281 29.6798V25.7653C18.8281 25.2249 19.2662 24.7866 19.8068 24.7866C20.3472 24.7866 20.7855 25.2246 20.7855 25.7653V29.6798C20.7855 30.2202 20.3475 30.6585 19.8068 30.6585C19.2664 30.6585 18.8281 30.2203 18.8281 29.6798Z" fill="#FF9309"/>
<path d="M23.7227 29.6798V25.7653C23.7227 25.2249 24.1607 24.7866 24.7014 24.7866C25.2418 24.7866 25.6801 25.2246 25.6801 25.7653V29.6798C25.6801 30.2202 25.242 30.6585 24.7014 30.6585C24.1609 30.6585 23.7227 30.2203 23.7227 29.6798Z" fill="#FF9309"/>
<path d="M28.6152 29.6798V25.7653C28.6152 25.2249 29.0533 24.7866 29.5939 24.7866C30.1344 24.7866 30.5726 25.2246 30.5726 25.7653V29.6798C30.5726 30.2202 30.1346 30.6585 29.5939 30.6585C29.0535 30.6585 28.6152 30.2203 28.6152 29.6798Z" fill="#FF9309"/>
<path d="M37.4231 20.8719H33.0534L29.4295 15.4358C29.13 14.9857 28.5209 14.8639 28.0724 15.1643C27.6227 15.4638 27.5014 16.0718 27.8009 16.5214L30.7015 20.8719H18.7003L21.6006 16.5216C21.9001 16.072 21.7788 15.464 21.3292 15.1645C20.8791 14.8642 20.2713 14.9857 19.972 15.436L16.3483 20.8719H11.9787C11.4383 20.8719 11 21.3099 11 21.8506C11 22.391 11.438 22.8293 11.9787 22.8293H13.0357L13.7898 31.8805C13.9154 33.3901 15.2006 34.5727 16.7156 34.5727H32.6861C34.2011 34.5727 35.4863 33.3901 35.612 31.8803L36.3663 22.829H37.423C37.9635 22.829 38.4017 22.391 38.4017 21.8503C38.4017 21.3099 37.9637 20.8719 37.423 20.8719H37.4231ZM33.6617 31.7185C33.6196 32.2218 33.1911 32.6157 32.6862 32.6157H16.7157C16.2108 32.6157 15.7823 32.2216 15.7404 31.7182L14.9998 22.8295H34.4025L33.6617 31.7185Z" fill="#FF9309"/>
</svg>
