<svg width="30" height="30" viewBox="0 0 30 30" fill="none" xmlns="http://www.w3.org/2000/svg">
<circle cx="15" cy="15" r="15" fill="#FF9309"/>
<path fill-rule="evenodd" clip-rule="evenodd" d="M10.4453 13.6001C10.4453 13.0478 10.893 12.6001 11.4453 12.6001H11.4536C12.0058 12.6001 12.4536 13.0478 12.4536 13.6001C12.4536 14.1524 12.0058 14.6001 11.4536 14.6001H11.4453C10.893 14.6001 10.4453 14.1524 10.4453 13.6001ZM13.75 13.6001C13.75 13.0478 14.1977 12.6001 14.75 12.6001H14.7583C15.3105 12.6001 15.7583 13.0478 15.7583 13.6001C15.7583 14.1524 15.3105 14.6001 14.7583 14.6001H14.75C14.1977 14.6001 13.75 14.1524 13.75 13.6001ZM18.0469 12.6001C17.4946 12.6001 17.0469 13.0478 17.0469 13.6001C17.0469 14.1524 17.4946 14.6001 18.0469 14.6001H18.0551C18.6074 14.6001 19.0551 14.1524 19.0551 13.6001C19.0551 13.0478 18.6074 12.6001 18.0551 12.6001H18.0469ZM10.5707 7C10.5887 7 10.6068 7 10.625 7L18.9293 7C19.6607 6.99996 20.2908 6.99993 20.7954 7.06777C21.3362 7.14048 21.8546 7.30444 22.2751 7.72491C22.6956 8.14539 22.8595 8.66377 22.9322 9.20457C23.0001 9.7092 23 10.3394 23 11.0707V16.1293C23 16.8606 23.0001 17.4908 22.9322 17.9954C22.8595 18.5362 22.6956 19.0546 22.2751 19.4751C21.8546 19.8956 21.3362 20.0595 20.7954 20.1322C20.2908 20.2001 19.6607 20.2 18.9293 20.2L16.4 20.2C16.3063 20.2 16.2149 20.2297 16.1391 20.2848L12.5024 22.9297C11.7211 23.498 10.625 22.9398 10.625 21.9737V20.2C9.98648 20.2 9.33897 20.2175 8.70457 20.1322C8.16377 20.0595 7.64539 19.8956 7.22491 19.4751C6.80444 19.0546 6.64048 18.5362 6.56777 17.9954C6.49993 17.4908 6.49996 16.8607 6.5 16.1293L6.5 11.125C6.5 11.1068 6.5 11.0887 6.5 11.0707C6.49996 10.3393 6.49993 9.70919 6.56777 9.20457C6.64048 8.66377 6.80444 8.14539 7.22491 7.72491C7.64539 7.30444 8.16377 7.14048 8.70457 7.06777C9.20919 6.99993 9.83934 6.99996 10.5707 7Z" fill="white"/>
</svg>
