<svg width="30" height="30" viewBox="0 0 30 30" fill="none" xmlns="http://www.w3.org/2000/svg">
<circle cx="15" cy="15" r="15" fill="#FF9309"/>
<path d="M14.8175 22.869C14.6588 22.7947 14.5256 22.6748 14.4351 22.5246C12.9609 20.4378 11.4755 18.359 10.0093 16.2659C9.45084 15.4626 9.11277 14.527 9.02866 13.5523C8.78115 11.0131 10.1538 8.57077 12.4819 7.56336C14.7416 6.58426 16.8759 6.8826 18.7868 8.44891C19.3629 8.91725 19.8409 9.49486 20.1932 10.1484C20.5456 10.8021 20.7655 11.5187 20.8403 12.2575C21.0301 13.7416 20.6414 15.2417 19.7548 16.4469C18.3276 18.457 16.8995 20.4709 15.4701 22.4882C15.3771 22.6535 15.236 22.7864 15.0654 22.8691L14.8175 22.869ZM16.9203 12.9731C16.9223 12.4494 16.7167 11.9461 16.3486 11.5735C15.9805 11.2009 15.4797 10.9894 14.956 10.9851C14.4322 10.9807 13.9281 11.1841 13.5539 11.5506C13.1798 11.9171 12.966 12.4169 12.9595 12.9407C12.9528 13.4644 13.1541 13.9694 13.5189 14.3452C13.8838 14.7209 14.3827 14.9368 14.9064 14.9456C15.4353 14.952 15.9449 14.7476 16.3228 14.3774C16.7006 14.0073 16.9156 13.502 16.9202 12.9731L16.9203 12.9731Z" fill="white"/>
</svg>
