<svg width="30" height="30" viewBox="0 0 30 30" fill="none" xmlns="http://www.w3.org/2000/svg">
<circle cx="15" cy="15" r="15" fill="#FF9309"/>
<path fill-rule="evenodd" clip-rule="evenodd" d="M7.60567 9.30157C7.75519 8.19722 8.72967 7.5 9.74253 7.5H11.6689C12.6373 7.5 13.4971 8.11972 13.8034 9.03849L14.5905 11.3997C14.9288 12.4146 14.3315 13.5027 13.2936 13.7622C13.0398 13.8256 12.9523 14.1417 13.1373 14.3266L15.6734 16.8627C15.8583 17.0477 16.1744 16.9602 16.2378 16.7064C16.4973 15.6685 17.5854 15.0712 18.6003 15.4095L20.9615 16.1966C21.8803 16.5029 22.5 17.3627 22.5 18.3311V20.2575C22.5 21.2703 21.8028 22.2448 20.6984 22.3943C20.1835 22.464 19.6583 22.5 19.125 22.5C12.7047 22.5 7.5 17.2953 7.5 10.875C7.5 10.3417 7.53596 9.81647 7.60567 9.30157Z" fill="white"/>
</svg>
