<svg width="50" height="50" viewBox="0 0 50 50" fill="none" xmlns="http://www.w3.org/2000/svg">
<path d="M35 33.3904L31.2132 29.6601C32.6369 27.8408 33.3128 25.5465 33.1027 23.2457C32.8928 20.9449 31.8126 18.8111 30.0829 17.2794C28.3532 15.7478 26.1042 14.9339 23.7949 15.0042C21.4858 15.0742 19.2903 16.0229 17.6565 17.6565C16.0229 19.2902 15.0742 21.4857 15.0042 23.7949C14.934 26.1042 15.7479 28.3532 17.2794 30.0829C18.8109 31.8126 20.9447 32.8928 23.2457 33.1027C25.5464 33.3128 27.8407 32.6369 29.6601 31.2132L33.4469 35L35 33.3904ZM24.0478 30.8508L24.0476 30.8506C22.2447 30.849 20.5161 30.1318 19.2418 28.8563C17.9673 27.581 17.2513 25.8519 17.2511 24.0489C17.2509 22.246 17.9665 20.5164 19.2404 19.2408C20.5159 17.967 22.245 17.2514 24.0476 17.2514C25.8504 17.2514 27.5793 17.967 28.8548 19.2408C30.1288 20.5163 30.8443 22.2454 30.8443 24.048C30.8443 25.8507 30.1288 27.5797 28.8548 28.8552C27.5854 30.1388 25.8531 30.8578 24.0476 30.8506L24.0478 30.8508Z" fill="#FF9309"/>
<circle cx="25" cy="25" r="24.5" stroke="#FF9309"/>
</svg>
